{"title":"Daan Veer Pilla - Zamindar (2011) BluRay 576p Dual Audio [Hindi ","uid":12149479,"size":1370003064,"categoryP":"video","categoryS":"movies","magnet":"?xt=urn:btih:0d471d8848b765ca9763d6a4bea8e7eca2f45fda&amp;dn=Daan+Veer+Pilla+-+Zamindar+%282011%29+BluRay+576p+Dual+Audio+%5BHindi+&amp;tr=udp%3A%2F%2Ftracker.openbittorrent.com%3A80&amp;tr=udp%3A%2F%2Fopen.demonii.com%3A1337&amp;tr=udp%3A%2F%2Ftracker.coppersurfer.tk%3A6969&amp;tr=udp%3A%2F%2Fexodus.desync.com%3A6969","seeders":8,"leechers":5,"uploader":"SS132203","files":2,"time":1437574129,"description":"Daan Veer Pilla - Zamindar (2011) BluRay 576p Dual Audio [Hindi 2.1 + Telugu 5.1] x264 ESubs...7St@r 1st on Net\n &lt;a href=&quot;\nhttp://imgsparrow.co/image/lr&quot; rel=&quot;nofollow&quot; target=&quot;_NEW&quot;&gt;\nhttp://imgsparrow.co/image/lr&lt;/a&gt;\n &lt;a href=&quot;\nhttp://imgsparrow.co/image/sQ&quot; rel=&quot;nofollow&quot; target=&quot;_NEW&quot;&gt;\nhttp://imgsparrow.co/image/sQ&lt;/a&gt;\n &lt;a href=&quot;\nhttp://imgsparrow.co/image/9b&quot; rel=&quot;nofollow&quot; target=&quot;_NEW&quot;&gt;\nhttp://imgsparrow.co/image/9b&lt;/a&gt;\n\nInfo : - \n\nFormat : Matroska\nFormat version : Version 4 / Version 2\nFile size : 1.28 GiB\nDuration : 2h 28mn\nOverall bit rate mode : Variable\nOverall bit rate : 1 234 Kbps\nMovie name : 7St@r by shanikhan786\n\nVideo\nID : 2\nFormat : AVC\nFormat/Info : Advanced Video Codec\nFormat profile : &lt;a class=&quot;__cf_email__&quot; href=&quot;/cdn-cgi/l/email-protection&quot; data-cfemail=&quot;753d1c121d3539415b44&quot;&gt;[email&amp;#160;protected]&lt;/a&gt;&lt;script data-cfhash='f9e31' type=&quot;text/javascript&quot;&gt;\n/* &lt;![CDATA[ */!function(){try{var t=&quot;currentScript&quot;in document?document.currentScript:function(){for(var t=document.getElementsByTagName(&quot;script&quot;),e=t.length;e--;)if(t[e].getAttribute(&quot;data-cfhash&quot;))return t[e]}();if(t&amp;&amp;t.previousSibling){var e,r,n,i,c=t.previousSibling,a=c.getAttribute(&quot;data-cfemail&quot;);if(a){for(e=&quot;&quot;,r=parseInt(a.substr(0,2),16),n=2;a.length-n;n+=2)i=parseInt(a.substr(n,2),16)^r,e+=String.fromCharCode(i);e=document.createTextNode(e),c.parentNode.replaceChild(e,c)}t.parentNode.removeChild(t);}}catch(u){}}()/* ]]&gt; */&lt;/script&gt;\nFormat settings, CABAC : Yes\nFormat settings, ReFrames : 3 frames\nCodec ID : V_MPEG4/ISO/AVC\nDuration : 2h 28mn\nBit rate mode : Variable\nBit rate : 1 008 Kbps\nMaximum bit rate : 15.0 Mbps\nWidth : 864 pixels\nHeight : 384 pixels\nDisplay aspect ratio : 2.25:1\nFrame rate mode : Constant\nFrame rate : 24.000 fps\nColor space : YUV\nChroma subsampling : 4:2:0\nBit depth : 8 bits\nScan type : Progressive\nBits/(Pixel*Frame) : 0.127\nStream size : 1.02 GiB (80%)\nTitle : 7St@r by shanikhan786\nDefault : Yes\nForced : No\nColor primaries : Generic film\nMatrix coefficients : YCgCo\n\nAudio #1\nID : 1\nFormat : MPEG Audio\nFormat version : Version 1\nFormat profile : Layer 3\nMode : Joint stereo\nCodec ID : A_MPEG/L3\nCodec ID/Hint : MP3\nDuration : 2h 28mn\nBit rate mode : Constant\nBit rate : 128 Kbps\nChannel(s) : 2 channels\nSampling rate : 44.1 KHz\nCompression mode : Lossy\nStream size : 136 MiB (10%)\nTitle : 7St@r by shanikhan786\nWriting library : LAME3.98.2\nLanguage : hai\nDefault : No\nForced : No\n\nAudio #2\nID : 3\nFormat : AC-3\nFormat/Info : Audio Coding 3\nMode extension : CM (complete main)\nFormat settings, Endianness : Big\nCodec ID : A_AC3\nDuration : 2h 28mn\nBit rate mode : Constant\nBit rate : 96.0 Kbps\nChannel(s) : 6 channels\nChannel positions : Front: L C R, Side: L R, LFE\nSampling rate : 44.1 KHz\nBit depth : 16 bits\nCompression mode : Lossy\nStream size : 102 MiB (8%)\nTitle : 7St@r by shanikhan786\nLanguage : Telugu\nDefault : Yes\nForced : No\n\nText\nID : 4\nFormat : ASS\nCodec ID : S_TEXT/ASS\nCodec ID/Info : Advanced Sub Station Alpha\nCompression mode : Lossless\nTitle : 7St@r by shanikhan786\nLanguage : English\nDefault : Yes\nForced : Yes\n\nScreens : - \n &lt;a href=&quot;\nhttp://imgsparrow.co/image/sZ&quot; rel=&quot;nofollow&quot; target=&quot;_NEW&quot;&gt;\nhttp://imgsparrow.co/image/sZ&lt;/a&gt; &lt;a href=&quot;\nhttp://imgsparrow.co/image/sa&quot; rel=&quot;nofollow&quot; target=&quot;_NEW&quot;&gt;\nhttp://imgsparrow.co/image/sa&lt;/a&gt; &lt;a href=&quot;\nhttp://imgsparrow.co/image/sf&quot; rel=&quot;nofollow&quot; target=&quot;_NEW&quot;&gt;\nhttp://imgsparrow.co/image/sf&lt;/a&gt; &lt;a href=&quot;\nhttp://imgsparrow.co/image/sI&quot; rel=&quot;nofollow&quot; target=&quot;_NEW&quot;&gt;\nhttp://imgsparrow.co/image/sI&lt;/a&gt; &lt;a href=&quot;\nhttp://imgsparrow.co/image/sP&quot; rel=&quot;nofollow&quot; target=&quot;_NEW&quot;&gt;\nhttp://imgsparrow.co/image/sP&lt;/a&gt; &lt;a href=&quot;\nhttp://imgsparrow.co/image/sW&quot; rel=&quot;nofollow&quot; target=&quot;_NEW&quot;&gt;\nhttp://imgsparrow.co/image/sW&lt;/a&gt; &lt;a href=&quot;\nhttp://imgsparrow.co/image/sX&quot; rel=&quot;nofollow&quot; target=&quot;_NEW&quot;&gt;\nhttp://imgsparrow.co/image/sX&lt;/a&gt; &lt;a href=&quot;\nhttp://imgsparrow.co/image/sY&quot; rel=&quot;nofollow&quot; target=&quot;_NEW&quot;&gt;\nhttp://imgsparrow.co/image/sY&lt;/a&gt; &lt;a href=&quot;\nhttp://imgsparrow.co/image/sc&quot; rel=&quot;nofollow&quot; target=&quot;_NEW&quot;&gt;\nhttp://imgsparrow.co/image/sc&lt;/a&gt; &lt;a href=&quot;\nhttp://imgsparrow.co/image/sd&quot; rel=&quot;nofollow&quot; target=&quot;_NEW&quot;&gt;\nhttp://imgsparrow.co/image/sd&lt;/a&gt;\n &lt;a href=&quot;\nhttp://imgsparrow.co/image/Vm&quot; rel=&quot;nofollow&quot; target=&quot;_NEW&quot;&gt;\nhttp://imgsparrow.co/image/Vm&lt;/a&gt;","torrent":{"xt":"urn:btih:0d471d8848b765ca9763d6a4bea8e7eca2f45fda","amp;dn":"Daan+Veer+Pilla+-+Zamindar+%282011%29+BluRay+576p+Dual+Audio+%5BHindi+","amp;tr":["udp%3A%2F%2Ftracker.openbittorrent.com%3A80","udp%3A%2F%2Fopen.demonii.com%3A1337","udp%3A%2F%2Ftracker.coppersurfer.tk%3A6969","udp%3A%2F%2Fexodus.desync.com%3A6969"],"infoHash":"0d471d8848b765ca9763d6a4bea8e7eca2f45fda","infoHashBuffer":{"type":"Buffer","data":[13,71,29,136,72,183,101,202,151,99,214,164,190,168,231,236,162,244,95,218]},"announce":[],"urlList":[]}}